<svg width="180" height="37" viewBox="0 0 180 37" fill="none" xmlns="http://www.w3.org/2000/svg">
<path d="M0.495512 37V9.16H5.67951V37H0.495512ZM0.495512 5.224V0.0399981H5.67951V5.224H0.495512ZM17.471 37C16.319 37 15.263 36.712 14.303 36.136C13.375 35.56 12.623 34.808 12.047 33.88C11.503 32.952 11.231 31.912 11.231 30.76V0.375999H16.415V9.16H27.839V14.344H16.415V30.616C16.415 30.936 16.527 31.224 16.751 31.48C17.007 31.704 17.295 31.816 17.615 31.816H27.839V37H17.471ZM37.8136 37C36.6936 37 35.6536 36.728 34.6936 36.184C33.7336 35.608 32.9656 34.856 32.3896 33.928C31.8456 32.968 31.5736 31.912 31.5736 30.76V28.744H36.7576V30.616C36.7576 30.936 36.8696 31.224 37.0936 31.48C37.3496 31.704 37.6376 31.816 37.9576 31.816H59.7496C60.0696 31.816 60.3416 31.704 60.5656 31.48C60.7896 31.224 60.9016 30.936 60.9016 30.616V23.512C60.9016 23.16 60.7896 22.872 60.5656 22.648C60.3416 22.424 60.0696 22.312 59.7496 22.312H37.8136C36.6936 22.312 35.6536 22.04 34.6936 21.496C33.7336 20.92 32.9656 20.168 32.3896 19.24C31.8456 18.28 31.5736 17.224 31.5736 16.072V8.68C31.5736 7.528 31.8456 6.488 32.3896 5.56C32.9656 4.6 33.7336 3.848 34.6936 3.304C35.6536 2.728 36.6936 2.44 37.8136 2.44H59.8936C61.0136 2.44 62.0536 2.728 63.0136 3.304C63.9736 3.848 64.7256 4.6 65.2696 5.56C65.8456 6.488 66.1336 7.528 66.1336 8.68V10.696H60.9016V8.824C60.9016 8.504 60.7896 8.232 60.5656 8.008C60.3416 7.752 60.0696 7.624 59.7496 7.624H37.9576C37.6376 7.624 37.3496 7.752 37.0936 8.008C36.8696 8.232 36.7576 8.504 36.7576 8.824V15.928C36.7576 16.28 36.8696 16.568 37.0936 16.792C37.3496 17.016 37.6376 17.128 37.9576 17.128H59.8936C61.0136 17.128 62.0536 17.416 63.0136 17.992C63.9736 18.536 64.7256 19.288 65.2696 20.248C65.8456 21.176 66.1336 22.216 66.1336 23.368V30.76C66.1336 31.912 65.8456 32.968 65.2696 33.928C64.7256 34.856 63.9736 35.608 63.0136 36.184C62.0536 36.728 61.0136 37 59.8936 37H37.8136ZM77.3761 37C76.2241 37 75.1681 36.712 74.2081 36.136C73.2801 35.56 72.5281 34.808 71.9521 33.88C71.4081 32.952 71.1361 31.912 71.1361 30.76V20.488H94.2241V15.544C94.2241 15.224 94.1121 14.952 93.8881 14.728C93.6641 14.472 93.3921 14.344 93.0721 14.344H71.1361V9.16H93.2161C94.3681 9.16 95.4081 9.448 96.3361 10.024C97.2961 10.568 98.0481 11.32 98.5921 12.28C99.1681 13.24 99.4561 14.28 99.4561 15.4V37H77.3761ZM77.5201 31.816H94.2241V25.336H76.3201V30.616C76.3201 30.936 76.4321 31.224 76.6561 31.48C76.9121 31.704 77.2001 31.816 77.5201 31.816ZM109.954 37C108.802 37 107.762 36.712 106.834 36.136C105.906 35.56 105.154 34.808 104.578 33.88C104.002 32.952 103.714 31.912 103.714 30.76V0.0399981H108.898V30.616C108.898 30.936 109.01 31.224 109.234 31.48C109.49 31.704 109.778 31.816 110.098 31.816H115.138V37H109.954ZM124.766 37C123.614 37 122.574 36.712 121.646 36.136C120.718 35.56 119.966 34.808 119.39 33.88C118.814 32.952 118.526 31.912 118.526 30.76V15.4C118.526 14.248 118.814 13.208 119.39 12.28C119.966 11.352 120.718 10.6 121.646 10.024C122.574 9.448 123.614 9.16 124.766 9.16H140.606C141.758 9.16 142.798 9.448 143.726 10.024C144.686 10.568 145.438 11.32 145.982 12.28C146.558 13.24 146.846 14.28 146.846 15.4V25.672H123.71V30.616C123.71 30.936 123.822 31.224 124.046 31.48C124.302 31.704 124.59 31.816 124.91 31.816H146.846V37H124.766ZM123.71 20.824H141.614V15.544C141.614 15.224 141.502 14.952 141.278 14.728C141.054 14.472 140.782 14.344 140.462 14.344H124.91C124.59 14.344 124.302 14.472 124.046 14.728C123.822 14.952 123.71 15.224 123.71 15.544V20.824ZM157.669 37C156.517 37 155.477 36.712 154.549 36.136C153.621 35.56 152.869 34.808 152.293 33.88C151.717 32.952 151.429 31.912 151.429 30.76V30.04H156.613V30.616C156.613 30.936 156.725 31.224 156.949 31.48C157.205 31.704 157.493 31.816 157.813 31.816H173.365C173.685 31.816 173.957 31.704 174.181 31.48C174.405 31.224 174.517 30.936 174.517 30.616V26.872C174.517 26.552 174.405 26.28 174.181 26.056C173.957 25.8 173.685 25.672 173.365 25.672H157.669C156.517 25.672 155.477 25.4 154.549 24.856C153.621 24.28 152.869 23.528 152.293 22.6C151.717 21.64 151.429 20.584 151.429 19.432V15.4C151.429 14.248 151.717 13.208 152.293 12.28C152.869 11.352 153.621 10.6 154.549 10.024C155.477 9.448 156.517 9.16 157.669 9.16H173.509C174.661 9.16 175.701 9.448 176.629 10.024C177.589 10.6 178.341 11.352 178.885 12.28C179.461 13.208 179.749 14.248 179.749 15.4V16.12H174.517V15.544C174.517 15.224 174.405 14.952 174.181 14.728C173.957 14.472 173.685 14.344 173.365 14.344H157.813C157.493 14.344 157.205 14.472 156.949 14.728C156.725 14.952 156.613 15.224 156.613 15.544V19.288C156.613 19.608 156.725 19.896 156.949 20.152C157.205 20.376 157.493 20.488 157.813 20.488H173.509C174.661 20.488 175.701 20.776 176.629 21.352C177.589 21.896 178.341 22.648 178.885 23.608C179.461 24.536 179.749 25.576 179.749 26.728V30.76C179.749 31.912 179.461 32.952 178.885 33.88C178.341 34.808 177.589 35.56 176.629 36.136C175.701 36.712 174.661 37 173.509 37H157.669Z" fill="white"/>
</svg>
