<svg width="30" height="28" viewBox="0 0 30 28" fill="none" xmlns="http://www.w3.org/2000/svg">
<path d="M27.2727 4.33637L11.7136 19.9091L5.93182 14.1273L7.85455 12.2045L11.7136 16.0636L25.35 2.42728L27.2727 4.33637ZM13.6364 24.5455C7.62273 24.5455 2.72727 19.65 2.72727 13.6364C2.72727 7.62273 7.62273 2.72727 13.6364 2.72727C15.7773 2.72727 17.7818 3.35455 19.4727 4.43182L21.45 2.45455C19.1585 0.855063 16.4309 -0.00177509 13.6364 2.76103e-06C6.10909 2.76103e-06 0 6.10909 0 13.6364C0 21.1636 6.10909 27.2727 13.6364 27.2727C15.9955 27.2727 18.2182 26.6727 20.1545 25.6091L18.1091 23.5636C16.7455 24.1909 15.2318 24.5455 13.6364 24.5455ZM23.1818 17.7273H19.0909V20.4545H23.1818V24.5455H25.9091V20.4545H30V17.7273H25.9091V13.6364H23.1818V17.7273Z" fill="white"/>
</svg>
