<svg width="17" height="17" viewBox="0 0 17 17" fill="none" xmlns="http://www.w3.org/2000/svg">
<rect x="0.23057" y="17" width="16.771" height="16.771" rx="2" transform="rotate(-90.788 0.23057 17)" fill="#EDEEEF"/>
<path d="M8.51472 9.5804L11.3216 6.69531C11.417 6.59723 11.5379 6.54606 11.6843 6.54181C11.8307 6.53755 11.9553 6.58534 12.0579 6.68518C12.1605 6.78501 12.2128 6.90703 12.2148 7.05125C12.2168 7.19547 12.1678 7.31888 12.068 7.4215L8.97096 10.6049C8.90647 10.6712 8.83813 10.7183 8.76594 10.7462C8.69376 10.774 8.61556 10.7885 8.53136 10.7897C8.44715 10.7909 8.36858 10.7785 8.29566 10.7526C8.22273 10.7268 8.15312 10.6816 8.08683 10.6171L4.90342 7.52003C4.80534 7.42463 4.75417 7.3037 4.74992 7.15727C4.74566 7.01085 4.79345 6.88633 4.89329 6.78372C4.99312 6.68109 5.11515 6.62879 5.25936 6.6268C5.40358 6.62482 5.52699 6.67375 5.62961 6.77359L8.51472 9.5804Z" fill="#686E73"/>
</svg>
