<svg width="67" height="12" viewBox="0 0 67 12" fill="none" xmlns="http://www.w3.org/2000/svg">
<path opacity="0.36" fill-rule="evenodd" clip-rule="evenodd" d="M46.0894 0H60.9106C62.1587 0 62.6113 0.129956 63.0676 0.373986C63.5239 0.618016 63.882 0.97612 64.126 1.43242C64.37 1.88871 64.5 2.34131 64.5 3.58944V7.91056C64.5 9.15869 64.37 9.61129 64.126 10.0676C63.882 10.5239 63.5239 10.882 63.0676 11.126C62.6113 11.37 62.1587 11.5 60.9106 11.5H46.0894C44.8413 11.5 44.3887 11.37 43.9324 11.126C43.4761 10.882 43.118 10.5239 42.874 10.0676C42.63 9.61129 42.5 9.15869 42.5 7.91056V3.58944C42.5 2.34131 42.63 1.88871 42.874 1.43242C43.118 0.97612 43.4761 0.618016 43.9324 0.373986C44.3887 0.129956 44.8413 0 46.0894 0ZM46.0894 1C45.1025 1 44.7579 1.06654 44.404 1.2558C44.122 1.40663 43.9066 1.62199 43.7558 1.90401C43.5665 2.2579 43.5 2.60246 43.5 3.58944V7.91056C43.5 8.89754 43.5665 9.2421 43.7558 9.59599C43.9066 9.87801 44.122 10.0934 44.404 10.2442C44.7579 10.4335 45.1025 10.5 46.0894 10.5H60.9106C61.8975 10.5 62.2421 10.4335 62.596 10.2442C62.878 10.0934 63.0934 9.87801 63.2442 9.59599C63.4335 9.2421 63.5 8.89754 63.5 7.91056V3.58944C63.5 2.60246 63.4335 2.2579 63.2442 1.90401C63.0934 1.62199 62.878 1.40663 62.596 1.2558C62.2421 1.06654 61.8975 1 60.9106 1H46.0894ZM67 5.69C67 6.92657 65.5 7.69 65.5 7.69V3.69C65.5 3.69 67 4.45343 67 5.69Z" fill="#303030"/>
<rect x="44.5" y="1.91663" width="18" height="7.66667" rx="1.6" fill="#303030"/>
<path fill-rule="evenodd" clip-rule="evenodd" d="M29.8 2.53635C32.0344 2.53645 34.1834 3.395 35.8028 4.93456C35.9247 5.05342 36.1196 5.05192 36.2397 4.9312L37.4054 3.75478C37.4662 3.69355 37.5001 3.61061 37.4996 3.52432C37.4991 3.43802 37.4642 3.35549 37.4027 3.29497C33.1524 -0.778337 26.447 -0.778337 22.1967 3.29497C22.1351 3.35544 22.1002 3.43795 22.0996 3.52425C22.099 3.61054 22.1329 3.69351 22.1937 3.75478L23.3597 4.9312C23.4797 5.0521 23.6747 5.0536 23.7966 4.93456C25.4162 3.3949 27.5654 2.53635 29.8 2.53635ZM29.8 6.36374C31.0277 6.36366 32.2115 6.81998 33.1216 7.64401C33.2446 7.76096 33.4385 7.75843 33.5585 7.6383L34.7228 6.46188C34.7841 6.40018 34.8182 6.31647 34.8173 6.22948C34.8164 6.1425 34.7807 6.05949 34.7181 5.99905C31.947 3.4213 27.6555 3.4213 24.8843 5.99905C24.8217 6.05949 24.786 6.14254 24.7852 6.22955C24.7843 6.31656 24.8185 6.40027 24.8799 6.46188L26.0439 7.6383C26.1639 7.75843 26.3578 7.76096 26.4809 7.64401C27.3903 6.82052 28.5732 6.36425 29.8 6.36374ZM32.0376 9.17134C32.0998 9.11023 32.1341 9.02613 32.1324 8.9389C32.1306 8.85167 32.0929 8.76904 32.0282 8.71052C30.7419 7.62262 28.8581 7.62262 27.5719 8.71052C27.5071 8.76899 27.4694 8.85159 27.4675 8.93882C27.4657 9.02605 27.4999 9.11018 27.5621 9.17134L29.5765 11.2038C29.6356 11.2636 29.716 11.2972 29.8 11.2972C29.884 11.2972 29.9645 11.2636 30.0235 11.2038L32.0376 9.17134Z" fill="#303030"/>
<path fill-rule="evenodd" clip-rule="evenodd" d="M14.123 1.40596C14.1 1.52187 14.1 1.66127 14.1 1.94006V9.64006C14.1 9.91886 14.1 10.0583 14.123 10.1742C14.2177 10.6502 14.5899 11.0223 15.0659 11.117C15.1818 11.1401 15.3212 11.1401 15.6 11.1401C15.8788 11.1401 16.0182 11.1401 16.1341 11.117C16.6101 11.0223 16.9822 10.6502 17.0769 10.1742C17.1 10.0583 17.1 9.91886 17.1 9.64006V1.94006C17.1 1.66127 17.1 1.52187 17.0769 1.40596C16.9822 0.929926 16.6101 0.557809 16.1341 0.463121C16.0182 0.440063 15.8788 0.440063 15.6 0.440063C15.3212 0.440063 15.1818 0.440063 15.0659 0.463121C14.5899 0.557809 14.2177 0.929926 14.123 1.40596ZM9.39999 4.34007C9.39999 4.06127 9.39999 3.92188 9.42305 3.80596C9.51774 3.32993 9.88986 2.95781 10.3659 2.86312C10.4818 2.84007 10.6212 2.84007 10.9 2.84007C11.1788 2.84007 11.3182 2.84007 11.4341 2.86312C11.9101 2.95781 12.2822 3.32993 12.3769 3.80596C12.4 3.92188 12.4 4.06127 12.4 4.34006V9.64007C12.4 9.91886 12.4 10.0583 12.3769 10.1742C12.2822 10.6502 11.9101 11.0223 11.4341 11.117C11.3182 11.1401 11.1788 11.1401 10.9 11.1401C10.6212 11.1401 10.4818 11.1401 10.3659 11.117C9.88986 11.0223 9.51774 10.6502 9.42305 10.1742C9.39999 10.0583 9.39999 9.91886 9.39999 9.64007V4.34007ZM4.82305 6.10596C4.79999 6.22188 4.79999 6.36128 4.79999 6.64007V9.64007C4.79999 9.91886 4.79999 10.0583 4.82305 10.1742C4.91773 10.6502 5.28985 11.0223 5.76588 11.117C5.8818 11.1401 6.02119 11.1401 6.29999 11.1401C6.57878 11.1401 6.71818 11.1401 6.8341 11.117C7.31012 11.0223 7.68224 10.6502 7.77693 10.1742C7.79999 10.0583 7.79999 9.91886 7.79999 9.64007V6.64007C7.79999 6.36127 7.79999 6.22188 7.77693 6.10596C7.68224 5.62993 7.31012 5.25781 6.8341 5.16313C6.71818 5.14007 6.57878 5.14007 6.29999 5.14007C6.02119 5.14007 5.8818 5.14007 5.76588 5.16313C5.28985 5.25781 4.91773 5.62993 4.82305 6.10596ZM0.0230577 8.10596C0 8.22188 0 8.36128 0 8.64007V9.64007C0 9.91886 0 10.0583 0.0230577 10.1742C0.117746 10.6502 0.489863 11.0223 0.965892 11.117C1.08181 11.1401 1.22121 11.1401 1.5 11.1401C1.77879 11.1401 1.91819 11.1401 2.03411 11.117C2.51014 11.0223 2.88225 10.6502 2.97694 10.1742C3 10.0583 3 9.91886 3 9.64007V8.64007C3 8.36127 3 8.22188 2.97694 8.10596C2.88225 7.62993 2.51014 7.25781 2.03411 7.16313C1.91819 7.14007 1.77879 7.14007 1.5 7.14007C1.22121 7.14007 1.08181 7.14007 0.965892 7.16313C0.489863 7.25781 0.117746 7.62993 0.0230577 8.10596Z" fill="#303030"/>
</svg>
