<svg width="24" height="24" viewBox="0 0 24 24" fill="none" xmlns="http://www.w3.org/2000/svg">
<g clip-path="url(#clip0_1_1878)">
<path d="M19.5266 22.6666H4.47325C4.32442 22.6675 4.17687 22.6391 4.03903 22.5829C3.9012 22.5268 3.77577 22.444 3.66991 22.3394C3.56405 22.2348 3.47983 22.1103 3.42207 21.9732C3.3643 21.836 3.33412 21.6888 3.33325 21.54V4.45997C3.33721 4.29505 3.37609 4.13285 3.44734 3.98407C3.51859 3.83529 3.62058 3.7033 3.74658 3.59683C3.87259 3.49036 4.01973 3.41182 4.17832 3.36639C4.33691 3.32097 4.50332 3.30969 4.66659 3.3333H5.99992V4.66664H4.66659V21.3333H19.3333V4.66664H17.9999V3.3333H19.4999C19.651 3.32886 19.8014 3.35466 19.9423 3.40921C20.0833 3.46375 20.2119 3.54593 20.3206 3.6509C20.4293 3.75588 20.5159 3.88154 20.5753 4.02048C20.6347 4.15943 20.6658 4.30885 20.6666 4.45997V21.54C20.6657 21.6888 20.6355 21.836 20.5778 21.9732C20.52 22.1103 20.4358 22.2348 20.3299 22.3394C20.2241 22.444 20.0986 22.5268 19.9608 22.5829C19.823 22.6391 19.6754 22.6675 19.5266 22.6666Z" fill="#52575B"/>
<path d="M11.1067 17.1734L7.53336 13.6C7.42498 13.4717 7.36902 13.3072 7.37667 13.1395C7.38431 12.9717 7.455 12.813 7.57459 12.6951C7.69419 12.5772 7.85388 12.5087 8.02175 12.5035C8.18961 12.4982 8.35328 12.5565 8.48003 12.6667L11.1067 15.2934L16.8667 9.53335C16.9942 9.42413 17.1583 9.36706 17.3261 9.37354C17.4938 9.38002 17.653 9.44958 17.7717 9.56831C17.8905 9.68704 17.96 9.8462 17.9665 10.014C17.973 10.1818 17.9159 10.3458 17.8067 10.4734L11.1067 17.1734Z" fill="#52575B"/>
<path d="M17.3334 7.33335H6.66675V4.88669C6.6685 4.47526 6.83272 4.08118 7.12365 3.79025C7.41457 3.49933 7.80865 3.33511 8.22008 3.33335H9.41341C9.56028 2.75974 9.89388 2.25133 10.3616 1.88826C10.8294 1.52519 11.4046 1.32812 11.9967 1.32812C12.5889 1.32812 13.1641 1.52519 13.6319 1.88826C14.0996 2.25133 14.4332 2.75974 14.5801 3.33335H15.7734C16.186 3.33335 16.5818 3.49679 16.8742 3.78791C17.1665 4.07902 17.3317 4.47411 17.3334 4.88669V7.33335ZM8.00008 6.00002H16.0001V4.88669C16.0001 4.82834 15.9769 4.77238 15.9356 4.73112C15.8944 4.68987 15.8384 4.66669 15.7801 4.66669H13.3334V4.00002C13.3334 3.6464 13.1929 3.30726 12.9429 3.05721C12.6928 2.80716 12.3537 2.66669 12.0001 2.66669C11.6465 2.66669 11.3073 2.80716 11.0573 3.05721C10.8072 3.30726 10.6667 3.6464 10.6667 4.00002V4.66669H8.22008C8.19119 4.66669 8.16258 4.67238 8.13589 4.68343C8.1092 4.69449 8.08495 4.71069 8.06452 4.73112C8.04409 4.75155 8.02788 4.7758 8.01683 4.8025C8.00577 4.82919 8.00008 4.8578 8.00008 4.88669V6.00002Z" fill="#52575B"/>
</g>
<defs>
<clipPath id="clip0_1_1878">
<rect width="24" height="24" fill="white"/>
</clipPath>
</defs>
</svg>
