<svg width="25" height="41" viewBox="0 0 25 41" fill="none" xmlns="http://www.w3.org/2000/svg">
<path d="M12.5004 40.9618C12.1152 40.9618 11.765 40.8313 11.4499 40.5703C11.1348 40.3092 10.9072 39.9579 10.7671 39.5161C9.96177 36.6649 8.94634 34.2754 7.72081 32.3478C6.49529 30.4202 5.30478 28.5729 4.14928 26.8059C3.0288 25.0389 2.05713 23.2117 1.23428 21.3242C0.411426 19.4368 0 17.1076 0 14.3366C0 10.3208 1.20802 6.92737 3.62405 4.15642C6.04009 1.38547 8.99886 0 12.5004 0C16.0019 0 18.9606 1.38547 21.3767 4.15642C23.7927 6.92737 25.0007 10.3208 25.0007 14.3366C25.0007 17.1076 24.598 19.4368 23.7927 21.3242C22.9874 23.2117 22.0069 25.0389 20.8514 26.8059C19.731 28.5729 18.5492 30.4202 17.3062 32.3478C16.0631 34.2754 15.0389 36.6649 14.2336 39.5161C14.0935 39.9579 13.8659 40.3092 13.5508 40.5703C13.2357 40.8313 12.8855 40.9618 12.5004 40.9618ZM12.5004 19.4569C13.7259 19.4569 14.7763 18.9549 15.6517 17.9509C16.5271 16.947 16.9648 15.7422 16.9648 14.3366C16.9648 12.9311 16.5271 11.7263 15.6517 10.7224C14.7763 9.71839 13.7259 9.21641 12.5004 9.21641C11.2748 9.21641 10.2244 9.71839 9.34901 10.7224C8.47363 11.7263 8.03595 12.9311 8.03595 14.3366C8.03595 15.7422 8.47363 16.947 9.34901 17.9509C10.2244 18.9549 11.2748 19.4569 12.5004 19.4569Z" fill="#FF0000"/>
<path d="M12.5004 19.4569C13.7259 19.4569 14.7763 18.9549 15.6517 17.9509C16.5271 16.947 16.9648 15.7422 16.9648 14.3366C16.9648 12.9311 16.5271 11.7263 15.6517 10.7224C14.7763 9.71839 13.7259 9.21641 12.5004 9.21641C11.2748 9.21641 10.2244 9.71839 9.34901 10.7224C8.47363 11.7263 8.03595 12.9311 8.03595 14.3366C8.03595 15.7422 8.47363 16.947 9.34901 17.9509C10.2244 18.9549 11.2748 19.4569 12.5004 19.4569Z" fill="#8E0909"/>
</svg>
